# xmcd CD database file
#
# Track frame offsets:
#	150
#	16081
#	30765
#	47293
#	63755
#	77686
#	89142
#	105250
#	121296
#	135322
#
# Disc length: 2031 seconds
#
# Revision: 1
# Processed by: cddbd v1.5.2PL0 Copyright (c) Steve Scherf et al.
# Submitted via: CDex 1.51
#
DISCID=6307ed0a
DTITLE=Biliu de Campina - Diga Sim ao Biliu de Campina
DYEAR=2002
DGENRE=Country
TTITLE0=Peso da solidao
TTITLE1=Veludo
TTITLE2=Sivucado ou Domingado
TTITLE3=Bisaco de cacador
TTITLE4=Bom e besta
TTITLE5=Paganini, Limeira e Biliu
TTITLE6=Pau de arara do amor
TTITLE7=Querendo te amar
TTITLE8=Sinto falta
TTITLE9=Forro de improviso
EXTD=YEAR: 2002
EXTT0=
EXTT1=
EXTT2=
EXTT3=
EXTT4=
EXTT5=
EXTT6=
EXTT7=
EXTT8=
EXTT9=
PLAYORDER=
